<svg width="27" height="27" viewBox="0 0 27 27" fill="none" xmlns="http://www.w3.org/2000/svg">
<g id="UH193P6iuZp8ZYN8 2">
<path id="Vector" d="M23.6253 21.5587H2.43784C2.07656 21.5587 1.73857 21.419 1.48218 21.1629C1.22578 20.9068 1.08594 20.5692 1.08594 20.2083V6.23216C1.08594 5.49285 1.69197 4.88167 2.43784 4.88167H23.6195C24.3712 4.88749 24.9773 5.49285 24.9773 6.23216V20.2083C24.9773 20.5692 24.8374 20.9068 24.581 21.1629C24.3246 21.419 23.9866 21.5587 23.6253 21.5587ZM2.14065 20.9184C2.23388 20.9592 2.33295 20.9766 2.43784 20.9766H23.6253C23.7302 20.9766 23.8293 20.9533 23.9226 20.9184L14.8555 11.861L13.8299 12.6119C13.3521 12.9612 12.7053 12.967 12.2274 12.6119L11.2018 11.861L2.14065 20.9184ZM15.3275 11.5117L24.3363 20.5109C24.3771 20.4178 24.3945 20.3189 24.3945 20.2141V6.23796C24.3945 5.76644 23.9924 5.46958 23.6253 5.46958C23.6195 5.46958 23.6195 5.46958 23.6195 5.46958C23.4564 5.46958 23.2991 5.52198 23.165 5.62677L21.6849 6.73855C21.6674 6.75021 21.65 6.76182 21.6325 6.76767L15.3275 11.5117ZM2.44365 5.46378C2.43783 5.46378 2.43783 5.46378 2.44365 5.46378C2.07072 5.46378 1.66865 5.76064 1.66865 6.23216V20.2083C1.66865 20.3131 1.69196 20.412 1.72693 20.5051L10.7357 11.5059L2.89818 5.61511C2.76415 5.51618 2.60682 5.46378 2.44365 5.46378ZM11.3534 11.2498L12.5771 12.1462C12.8509 12.3441 13.2181 12.3441 13.4861 12.1462L14.7098 11.2439C14.7098 11.2439 14.7157 11.244 14.7157 11.2381L21.3353 6.25542C21.3528 6.24376 21.3703 6.23215 21.3878 6.2263L22.4075 5.45792H3.66155L11.3534 11.2498C11.3534 11.244 11.3475 11.244 11.3534 11.2498Z" fill="#33BDC6"/>
</g>
</svg>
