<svg width="25" height="24" viewBox="0 0 25 24" fill="none" xmlns="http://www.w3.org/2000/svg">
<g id="Nav Icons">
<path id="Vector" d="M8.5 10H16.5" stroke="white" stroke-linecap="round" stroke-linejoin="round"/>
<path id="Vector_2" d="M3.5 9.8C3.5 8.11984 3.5 7.27976 3.82698 6.63803C4.1146 6.07354 4.57354 5.6146 5.13803 5.32698C5.77976 5 6.61984 5 8.3 5H16.7C18.3802 5 19.2202 5 19.862 5.32698C20.4265 5.6146 20.8854 6.07354 21.173 6.63803C21.5 7.27976 21.5 8.11984 21.5 9.8V16.2C21.5 17.8802 21.5 18.7202 21.173 19.362C20.8854 19.9265 20.4265 20.3854 19.862 20.673C19.2202 21 18.3802 21 16.7 21H8.3C6.61984 21 5.77976 21 5.13803 20.673C4.57354 20.3854 4.1146 19.9265 3.82698 19.362C3.5 18.7202 3.5 17.8802 3.5 16.2V9.8Z" stroke="white" stroke-width="1.5"/>
<path id="Vector_3" d="M9.5 7V3" stroke="white" stroke-width="1.5" stroke-linecap="round" stroke-linejoin="round"/>
<path id="Vector_4" d="M15.5 7V3" stroke="white" stroke-width="1.5" stroke-linecap="round" stroke-linejoin="round"/>
<path id="Vector_5" d="M8.5 16.0675H9.50557C9.68505 16.0675 9.77479 16.0675 9.85402 16.0402C9.92408 16.016 9.98789 15.9765 10.0408 15.9247C10.1007 15.866 10.1409 15.7858 10.2211 15.6252L11.0329 14.0018C11.3316 13.4043 11.481 13.1055 11.6586 13.0352C11.8124 12.9742 11.9864 12.9933 12.1234 13.0862C12.2815 13.1934 12.3625 13.5174 12.5245 14.1655L13.2239 16.963C13.4519 17.875 13.5659 18.331 13.7471 18.4372C13.9032 18.5288 14.0968 18.5288 14.2529 18.4372C14.4341 18.331 14.5481 17.875 14.7761 16.963L14.8485 16.6734C14.9026 16.4568 14.9297 16.3485 14.9901 16.2678C15.0434 16.1966 15.1148 16.1409 15.1967 16.1065C15.2896 16.0675 15.4013 16.0675 15.6246 16.0675H17.5" stroke="white" stroke-linecap="round" stroke-linejoin="round"/>
</g>
</svg>
