<svg width="26" height="22" viewBox="0 0 26 22" fill="none" xmlns="http://www.w3.org/2000/svg">
<g id="Vector">
<path fill-rule="evenodd" clip-rule="evenodd" d="M10.2095 6.94052C10.1851 6.96981 10.1743 7.00796 10.1774 7.03829C10.2406 7.65814 10.0589 8.42348 9.71407 9.1716C9.36337 9.93268 8.81938 10.7306 8.09102 11.4208C7.29158 12.1784 6.13671 12.7323 5.07065 13.1327C3.99206 13.5377 2.9373 13.8094 2.30066 13.9731C1.98236 14.055 1.77273 14.3271 1.77273 14.6074V19.75C1.77273 20.0722 2.03729 20.3333 2.36364 20.3333H23.6364C23.9627 20.3333 24.2273 20.0722 24.2273 19.75V14.5935C24.2273 14.316 24.0222 14.0441 23.706 13.9557L23.6541 13.9412C23.0542 13.7735 22.091 13.5041 21.099 13.1122C20.0879 12.7128 18.9888 12.1642 18.2044 11.4208C17.4654 10.7205 16.8895 9.91016 16.4988 9.14418C16.1155 8.3925 15.8822 7.62705 15.895 7.01927C15.8956 6.99133 15.8838 6.95913 15.8625 6.93568C15.8528 6.92518 15.8446 6.92017 15.8404 6.91818C15.8372 6.91667 15.836 6.91667 15.8352 6.91667C15.7393 6.91667 15.4901 6.91667 15.2455 6.91696V8.66667C15.2455 8.98884 14.9809 9.25 14.6545 9.25H11.3455C11.0191 9.25 10.7545 8.98884 10.7545 8.66667V6.9169C10.5358 6.91667 10.3216 6.91667 10.2415 6.91667C10.2403 6.91667 10.2389 6.91667 10.2351 6.91853C10.2301 6.92104 10.2204 6.9274 10.2095 6.94052ZM9.00155 7.15513C8.93277 6.48033 9.44403 5.75 10.2415 5.75H10.2491C10.4271 5.75 11.2335 5.75 11.3583 5.75268C11.6796 5.75951 11.9364 6.01862 11.9364 6.33584V8.08333H14.0636V6.33584C14.0636 6.01862 14.3204 5.75951 14.6418 5.75268C14.7665 5.75 15.623 5.75 15.8262 5.75H15.8351C16.5826 5.75 17.0902 6.40042 17.0766 7.04366C17.0694 7.3817 17.2125 7.94911 17.5544 8.61953C17.8891 9.27567 18.3871 9.97672 19.0228 10.5792C19.642 11.166 20.5721 11.6474 21.5381 12.0291C22.4717 12.398 23.3847 12.6533 23.9856 12.8213L24.0282 12.8332C24.8065 13.0509 25.4091 13.748 25.4091 14.5935V19.75C25.4091 20.7165 24.6154 21.5 23.6364 21.5H2.36364C1.38459 21.5 0.590909 20.7165 0.590909 19.75V14.6074C0.590909 13.7523 1.20801 13.0485 2.0027 12.8441C2.63996 12.6802 3.63842 12.4223 4.65048 12.0422C5.67509 11.6574 6.64838 11.1708 7.27261 10.5792C7.88804 9.99597 8.34671 9.32128 8.63832 8.68848C8.93585 8.04291 9.03606 7.49329 9.00155 7.15513Z" fill="#33BDC6"/>
<path fill-rule="evenodd" clip-rule="evenodd" d="M10.6364 13.3333C10.9627 13.3333 11.2273 13.0722 11.2273 12.75C11.2273 12.4278 10.9627 12.1667 10.6364 12.1667C10.31 12.1667 10.0455 12.4278 10.0455 12.75C10.0455 13.0722 10.31 13.3333 10.6364 13.3333ZM11.2273 15.0833C11.2273 15.4055 10.9627 15.6667 10.6364 15.6667C10.31 15.6667 10.0455 15.4055 10.0455 15.0833C10.0455 14.7612 10.31 14.5 10.6364 14.5C10.9627 14.5 11.2273 14.7612 11.2273 15.0833ZM10.6364 18C10.9627 18 11.2273 17.7388 11.2273 17.4167C11.2273 17.0945 10.9627 16.8333 10.6364 16.8333C10.31 16.8333 10.0455 17.0945 10.0455 17.4167C10.0455 17.7388 10.31 18 10.6364 18ZM13.5909 12.75C13.5909 13.0722 13.3264 13.3333 13 13.3333C12.6736 13.3333 12.4091 13.0722 12.4091 12.75C12.4091 12.4278 12.6736 12.1667 13 12.1667C13.3264 12.1667 13.5909 12.4278 13.5909 12.75ZM13 15.6667C13.3264 15.6667 13.5909 15.4055 13.5909 15.0833C13.5909 14.7612 13.3264 14.5 13 14.5C12.6736 14.5 12.4091 14.7612 12.4091 15.0833C12.4091 15.4055 12.6736 15.6667 13 15.6667ZM13.5909 17.4167C13.5909 17.7388 13.3264 18 13 18C12.6736 18 12.4091 17.7388 12.4091 17.4167C12.4091 17.0945 12.6736 16.8333 13 16.8333C13.3264 16.8333 13.5909 17.0945 13.5909 17.4167ZM15.3636 13.3333C15.69 13.3333 15.9545 13.0722 15.9545 12.75C15.9545 12.4278 15.69 12.1667 15.3636 12.1667C15.0373 12.1667 14.7727 12.4278 14.7727 12.75C14.7727 13.0722 15.0373 13.3333 15.3636 13.3333ZM15.9545 15.0833C15.9545 15.4055 15.69 15.6667 15.3636 15.6667C15.0373 15.6667 14.7727 15.4055 14.7727 15.0833C14.7727 14.7612 15.0373 14.5 15.3636 14.5C15.69 14.5 15.9545 14.7612 15.9545 15.0833ZM15.3636 18C15.69 18 15.9545 17.7388 15.9545 17.4167C15.9545 17.0945 15.69 16.8333 15.3636 16.8333C15.0373 16.8333 14.7727 17.0945 14.7727 17.4167C14.7727 17.7388 15.0373 18 15.3636 18Z" fill="#33BDC6"/>
<path fill-rule="evenodd" clip-rule="evenodd" d="M1.1596 5.32516C1.1596 5.32516 1.15973 5.32475 1.15999 5.32387L1.1596 5.32516ZM1.18182 5.2614C1.1874 5.24658 1.19413 5.22937 1.2021 5.20989C1.23831 5.12146 1.30015 4.98688 1.39741 4.82122C1.59158 4.49047 1.92773 4.0343 2.48636 3.57213C3.59512 2.65476 5.63863 1.66667 9.3337 1.66667L11.5726 1.66668C13.6413 1.6667 16.2067 1.66673 17.7945 1.66667C20.8995 1.66654 22.654 2.63869 23.6281 3.54868C24.1212 4.00933 24.4282 4.4669 24.6102 4.80348C24.7012 4.97172 24.7607 5.10921 24.7964 5.20073C24.8051 5.22284 24.8123 5.24221 24.8182 5.25866V6.91667C24.8182 7.26468 24.552 7.5 24.281 7.5H19.7686C19.4975 7.5 19.2314 7.26468 19.2314 6.91667L19.2314 5.16678C19.2314 5.07981 19.2117 4.994 19.1738 4.91548L18.6405 5.16678C19.1738 4.91548 19.1735 4.91502 19.1733 4.91449L19.1728 4.91344L19.1717 4.91128L19.1694 4.90662L19.1639 4.89606C19.1625 4.8932 19.1609 4.89017 19.1592 4.88702C19.1563 4.88171 19.1532 4.87599 19.1498 4.86987C19.1387 4.85033 19.1245 4.82664 19.1067 4.79952C19.0711 4.74515 19.021 4.67707 18.953 4.60031C18.8164 4.44625 18.6104 4.26075 18.3094 4.08289C17.7055 3.72595 16.7491 3.41667 15.2562 3.41672L10.7438 3.41667C9.25086 3.41667 8.29447 3.72595 7.6905 4.08289C7.38955 4.26075 7.18356 4.44625 7.047 4.60037C6.97899 4.67707 6.92894 4.74515 6.89325 4.79952C6.87546 4.82664 6.86128 4.85033 6.85023 4.86987C6.84474 4.87967 6.84001 4.88842 6.83605 4.89606L6.83061 4.90662L6.82825 4.91128L6.82719 4.91344L6.82671 4.91449C6.82648 4.91502 6.82618 4.91548 7.35948 5.16678L6.82618 4.91548C6.7883 4.994 6.76857 5.07981 6.76857 5.16678V6.91667C6.76857 7.26468 6.50248 7.5 6.23143 7.5H1.71901C1.44793 7.5 1.18182 7.26468 1.18182 6.91667V5.2614ZM7.95039 5.35316V6.91667C7.95039 7.85729 7.20637 8.66667 6.23143 8.66667H1.71901C0.74402 8.66667 0 7.85729 0 6.91667V5.16678C0 5.11492 0.00700223 5.0633 0.0208177 5.01325L0.590909 5.16678C0.0208177 5.01325 0.0209537 5.01278 0.0210955 5.01226L0.0213969 5.01121L0.0220882 5.00876L0.0238254 5.00269L0.0287655 4.98618C0.0327364 4.97323 0.0380781 4.95643 0.0449799 4.93607C0.0587718 4.8953 0.0787859 4.84018 0.106411 4.77268C0.161637 4.63782 0.24742 4.45337 0.374896 4.23625C0.630199 3.80132 1.05199 3.23665 1.72723 2.67797C3.08618 1.55362 5.41409 0.5 9.3337 0.5L11.5726 0.500018C13.6414 0.500035 16.2067 0.500064 17.7944 0.5C21.1759 0.499866 23.2288 1.56943 24.4404 2.70125C25.0401 3.2615 25.4206 3.82477 25.6527 4.25387C25.7688 4.46847 25.8481 4.65007 25.8994 4.78184C25.9251 4.84776 25.9439 4.90137 25.9568 4.94063C25.9633 4.96023 25.9683 4.97627 25.9719 4.98846L25.9765 5.00386L25.9781 5.00928L25.9787 5.0115L25.979 5.01243C25.9791 5.01284 25.9792 5.01331 25.4091 5.16678L25.9792 5.01331C25.993 5.0633 26 5.11492 26 5.16678V6.91667C26 7.85729 25.256 8.66667 24.281 8.66667H19.7686C18.7936 8.66667 18.0496 7.85729 18.0496 6.91667L18.0496 5.35316C17.9889 5.28777 17.8804 5.18907 17.7024 5.08389C17.3192 4.85744 16.5835 4.58333 15.2562 4.58339L10.7438 4.58333C9.41649 4.58333 8.68075 4.85744 8.2976 5.08389C8.11962 5.18907 8.01107 5.28777 7.95039 5.35316Z" fill="#33BDC6"/>
</g>
</svg>
