<svg width="26" height="22" viewBox="0 0 26 22" fill="none" xmlns="http://www.w3.org/2000/svg">
<path id="Subtract" fill-rule="evenodd" clip-rule="evenodd" d="M18.0227 0H7.97727V3.18421C7.97727 3.66383 7.58043 4.05263 7.09091 4.05263C6.60138 4.05263 6.20455 3.66383 6.20455 3.18421V0H2.36364C1.05824 0 0 1.03681 0 2.31579V7.23684H26V2.31579C26 1.03681 24.9418 0 23.6364 0H19.7955V3.18421C19.7955 3.66383 19.3986 4.05263 18.9091 4.05263C18.4196 4.05263 18.0227 3.66383 18.0227 3.18421V0ZM0 8.97368V19.6842C0 20.9632 1.05824 22 2.36364 22H23.6364C24.9418 22 26 20.9632 26 19.6842V8.97368H0ZM4.13636 15.0526C5.11541 15.0526 5.90909 14.275 5.90909 13.3158C5.90909 12.3566 5.11541 11.5789 4.13636 11.5789C3.15731 11.5789 2.36364 12.3566 2.36364 13.3158C2.36364 14.275 3.15731 15.0526 4.13636 15.0526ZM13 13.3158C13 14.275 12.2063 15.0526 11.2273 15.0526C10.2482 15.0526 9.45455 14.275 9.45455 13.3158C9.45455 12.3566 10.2482 11.5789 11.2273 11.5789C12.2063 11.5789 13 12.3566 13 13.3158Z" fill="#33BDC6"/>
</svg>
